<?xml version="1.0" standalone="no"?>
<!DOCTYPE svg PUBLIC "-//W3C//DTD SVG 20010904//EN"
 "http://www.w3.org/TR/2001/REC-SVG-20010904/DTD/svg10.dtd">
<svg version="1.0" xmlns="http://www.w3.org/2000/svg"
 width="330.000000pt" height="150.000000pt" viewBox="0 0 330.000000 150.000000"
 preserveAspectRatio="xMidYMid meet">

<g transform="translate(0.000000,150.000000) scale(0.100000,-0.100000)"
fill="#000000" stroke="none">
<path d="M615 1206 c-95 -45 -144 -126 -145 -236 0 -81 30 -150 88 -202 53
-48 122 -68 235 -68 85 0 90 -1 118 -29 39 -40 39 -82 0 -122 l-29 -29 -186 0
-186 0 0 -91 0 -90 213 3 c241 3 259 8 331 88 51 57 69 103 69 181 0 82 -26
141 -88 198 -56 52 -121 71 -242 71 -86 0 -96 2 -118 25 -38 37 -35 95 6 129
30 26 33 26 185 26 l154 0 0 85 0 85 -177 0 c-166 0 -181 -2 -228 -24z m375
-61 l0 -55 -137 0 c-154 0 -174 -6 -211 -60 -34 -50 -26 -104 22 -147 35 -33
37 -33 134 -33 118 0 174 -16 226 -67 58 -56 71 -88 71 -173 0 -83 -13 -117
-67 -170 -62 -63 -92 -70 -300 -70 l-188 0 0 60 0 60 160 0 c219 0 260 19 260
122 0 38 -6 54 -29 80 l-29 32 -124 6 c-105 5 -130 10 -161 29 -135 83 -167
247 -69 361 61 72 84 79 275 80 l167 0 0 -55z"/>
<path d="M1572 1067 c2 -25 8 -33 26 -35 20 -3 23 0 20 24 -2 17 -11 30 -26
35 -22 8 -23 6 -20 -24z"/>
<path d="M1743 1090 c-34 -14 -63 -68 -63 -118 0 -37 6 -50 34 -78 43 -43 62
-45 41 -4 -19 37 -19 130 -1 175 8 19 14 35 13 34 -1 0 -12 -4 -24 -9z"/>
<path d="M1846 1065 c18 -44 18 -126 0 -170 -14 -33 -14 -34 7 -26 32 12 67
68 67 108 0 41 -22 86 -52 107 -34 24 -38 20 -22 -19z"/>
<path d="M1980 1006 c0 -104 11 -130 63 -142 32 -7 35 6 7 31 -17 16 -20 31
-20 112 0 93 0 93 -25 93 -25 0 -25 0 -25 -94z"/>
<path d="M2128 1070 l17 -29 12 22 c18 32 16 37 -17 37 l-29 0 17 -30z"/>
<path d="M2260 1063 l0 -38 19 24 c10 14 27 31 37 38 16 12 14 13 -19 13 -36
0 -37 -1 -37 -37z"/>
<path d="M2348 993 c-41 -60 -77 -114 -82 -120 -5 -9 1 -13 21 -13 24 1 38 15
103 112 41 62 77 116 78 120 2 4 -8 8 -21 8 -21 0 -39 -19 -99 -107z"/>
<path d="M2634 1064 c-5 -20 4 -49 37 -115 39 -80 46 -89 71 -89 l28 0 -57
115 c-32 63 -61 115 -65 115 -4 0 -11 -12 -14 -26z"/>
<path d="M1440 1035 c0 -3 7 -20 16 -36 19 -38 157 -108 162 -83 6 27 -29 66
-81 89 -65 28 -97 38 -97 30z"/>
<path d="M2433 894 l-31 -34 34 0 c32 0 34 2 34 35 0 19 -1 34 -2 34 -2 -1
-17 -17 -35 -35z"/>
<path d="M1440 892 c0 -31 1 -32 43 -32 36 1 39 2 22 12 -11 6 -30 20 -42 31
l-23 20 0 -31z"/>
<path d="M2546 885 l-16 -25 40 0 41 0 -18 25 c-23 31 -27 31 -47 0z"/>
<path d="M1612 757 c2 -25 8 -33 26 -35 20 -3 23 0 20 24 -2 17 -11 30 -26 35
-22 8 -23 6 -20 -24z"/>
<path d="M1740 670 l0 -120 25 0 25 0 0 120 0 120 -25 0 -25 0 0 -120z"/>
<path d="M1937 675 c54 -107 58 -113 70 -92 19 35 16 53 -28 132 -36 67 -44
75 -70 75 l-29 0 57 -115z"/>
<path d="M2090 670 l0 -120 25 0 25 0 0 120 0 120 -25 0 -25 0 0 -120z"/>
<path d="M2261 765 c-62 -53 -62 -137 1 -190 35 -30 45 -27 27 7 -18 34 -17
137 3 176 20 39 10 41 -31 7z"/>
<path d="M2385 749 c19 -53 19 -110 0 -156 -20 -46 -20 -46 14 -29 30 16 61
69 61 106 0 36 -31 90 -61 105 l-28 15 14 -41z"/>
<path d="M2529 753 c17 -21 62 -72 101 -113 l69 -75 1 40 c0 35 -8 49 -63 112
-56 65 -66 72 -100 72 l-39 1 31 -37z"/>
<path d="M2685 770 c14 -16 20 -17 27 -8 13 22 9 28 -19 28 -26 0 -26 0 -8
-20z"/>
<path d="M1480 725 c0 -3 7 -20 16 -36 19 -38 157 -108 162 -83 6 27 -29 66
-81 89 -65 28 -97 38 -97 30z"/>
<path d="M1480 582 c0 -31 1 -32 43 -32 36 1 39 2 22 12 -11 6 -30 20 -42 31
l-23 20 0 -31z"/>
<path d="M2513 580 c-11 -30 -11 -30 25 -30 l35 0 -24 28 c-13 15 -24 28 -24
29 -1 1 -6 -11 -12 -27z"/>
<path d="M1866 575 l-16 -25 40 0 41 0 -18 25 c-23 31 -27 31 -47 0z"/>
</g>
</svg>
